<svg width="32" height="32" viewBox="0 0 32 32" fill="none" xmlns="http://www.w3.org/2000/svg">
  <!-- Central stem -->
  <rect x="15" y="4" width="2" height="24" fill="#2D5016"/>
  
  <!-- Top single leaf pointing upward -->
  <ellipse cx="16" cy="6" rx="2" ry="4" fill="#2D5016" transform="rotate(0 16 6)"/>
  
  <!-- First pair of leaves - pointing up and slightly out -->
  <ellipse cx="13" cy="10" rx="2" ry="4" fill="#2D5016" transform="rotate(-25 13 10)"/>
  <ellipse cx="19" cy="10" rx="2" ry="4" fill="#2D5016" transform="rotate(25 19 10)"/>
  
  <!-- Second pair of leaves - pointing more horizontally -->
  <ellipse cx="11" cy="16" rx="2" ry="4" fill="#2D5016" transform="rotate(-45 11 16)"/>
  <ellipse cx="21" cy="16" rx="2" ry="4" fill="#2D5016" transform="rotate(45 21 16)"/>
  
  <!-- Third pair of leaves - pointing down and out -->
  <ellipse cx="9" cy="22" rx="2" ry="4" fill="#2D5016" transform="rotate(-60 9 22)"/>
  <ellipse cx="23" cy="22" rx="2" ry="4" fill="#2D5016" transform="rotate(60 23 22)"/>
  
  <!-- Bottom pair of leaves - pointing down and slightly out -->
  <ellipse cx="7" cy="28" rx="2" ry="4" fill="#2D5016" transform="rotate(-75 7 28)"/>
  <ellipse cx="25" cy="28" rx="2" ry="4" fill="#2D5016" transform="rotate(75 25 28)"/>
</svg>