<svg width="32" height="32" viewBox="0 0 32 32" fill="none" xmlns="http://www.w3.org/2000/svg">
  <!-- Central stem -->
  <rect x="15" y="4" width="2" height="24" fill="#2D5016"/>
  
  <!-- Top single leaf -->
  <ellipse cx="16" cy="6" rx="3" ry="6" fill="#2D5016" transform="rotate(0 16 6)"/>
  
  <!-- First pair of leaves -->
  <ellipse cx="12" cy="10" rx="3" ry="6" fill="#2D5016" transform="rotate(-30 12 10)"/>
  <ellipse cx="20" cy="10" rx="3" ry="6" fill="#2D5016" transform="rotate(30 20 10)"/>
  
  <!-- Second pair of leaves -->
  <ellipse cx="10" cy="16" rx="3" ry="6" fill="#2D5016" transform="rotate(-45 10 16)"/>
  <ellipse cx="22" cy="16" rx="3" ry="6" fill="#2D5016" transform="rotate(45 22 16)"/>
  
  <!-- Third pair of leaves -->
  <ellipse cx="8" cy="22" rx="3" ry="6" fill="#2D5016" transform="rotate(-60 8 22)"/>
  <ellipse cx="24" cy="22" rx="3" ry="6" fill="#2D5016" transform="rotate(60 24 22)"/>
  
  <!-- Bottom pair of leaves -->
  <ellipse cx="6" cy="28" rx="3" ry="6" fill="#2D5016" transform="rotate(-75 6 28)"/>
  <ellipse cx="26" cy="28" rx="3" ry="6" fill="#2D5016" transform="rotate(75 26 28)"/>
</svg>